# xmcd
#
# Track frame offsets:
#	150
#	18148
#	36201
#	50733
#	64622
#	91072
#	105716
#	115752
#	132640
#	148138
#	167191
#
# Disc length: 2584 seconds
#
# Revision: 0
# Processed by: cddbd v1.5.1PL0 Copyright (c) Steve Scherf et al.
# Submitted via: dBpowerAMP V4.0
#
DISCID=970a160b
DTITLE=The Rue Barbs - Going Home
DYEAR=1900
DGENRE=Country
TTITLE0=Going Home
TTITLE1=For You
TTITLE2=A Man From Your Side Of Town
TTITLE3=In Spite Of Myself
TTITLE4=Too Good To Let It Go
TTITLE5=Loisianne
TTITLE6=Pretty Baby
TTITLE7=Stay
TTITLE8=Good Street
TTITLE9=You'll Still Be There
TTITLE10=River Lady
EXTD=
EXTT0=
EXTT1=
EXTT2=
EXTT3=
EXTT4=
EXTT5=
EXTT6=
EXTT7=
EXTT8=
EXTT9=
EXTT10=
PLAYORDER=
